<?xml version="1.0" encoding="iso-8859-1"?>
<!-- Generator: Adobe Illustrator 16.0.0, SVG Export Plug-In . SVG Version: 6.00 Build 0)  -->
<!DOCTYPE svg PUBLIC "-//W3C//DTD SVG 1.1//EN" "http://www.w3.org/Graphics/SVG/1.1/DTD/svg11.dtd">
<svg version="1.1" id="Capa_1" xmlns="http://www.w3.org/2000/svg" xmlns:xlink="http://www.w3.org/1999/xlink" x="0px" y="0px"
	 width="32px" height="31.999px" viewBox="0 0 32 31.999" style="enable-background:new 0 0 32 31.999;" xml:space="preserve">
<g>
	<path d="M25.066,21.173c-2.002-2.592-2.002-2.169-2.783-2.154s-2.564-1.57-2.564-1.57s1.611-1.176,1.784-2.136
		c0.172-2.396-1.464-3.17-1.556-7.96c-0.095-4.79-3.922-3.901-4.611-1.254c-1.291-4.884-1.32-5.63-2.555-6.06
		c-1.747-0.574-2.781,5.456-3.242,7.585C9.094,9.677,9.35,20.152,10.299,22.076c-0.166,0.002-0.27,0.019-0.27,0.019
		s-0.573-1.204-1.405-0.859c-0.014,0.005-0.025,0.013-0.038,0.02c-0.186-0.472-0.434-1.208-0.428-1.756
		c0.08-0.032,0.153-0.106,0.188-0.215c0.053-0.164-0.002-0.329-0.122-0.368s-0.261,0.063-0.314,0.227
		c-0.046,0.141-0.008,0.277,0.079,0.339c-0.009,0.6,0.254,1.377,0.446,1.859c-0.006,0.004-0.012,0.01-0.018,0.015
		c-0.409-0.373-1.119-0.938-1.825-1.15c-0.008-0.121-0.142-0.218-0.309-0.218c-0.173,0-0.313,0.102-0.313,0.229
		s0.14,0.229,0.312,0.229c0.098,0,0.182-0.036,0.239-0.087c0.663,0.192,1.356,0.746,1.762,1.11
		c-0.467,0.492-0.333,1.404,0.626,1.717c-0.373,1.605,1.693,2.667,2.438,3.843c0.746,1.176,3.557,5.536,4.302,4.331
		c0.359-0.581,0.064-1.288-0.43-2.02c1.813,1.148,5.015,3.038,5.76,2.593c1.058-0.632,4.354-3.451,4.353-5.653
		S27.066,23.766,25.066,21.173z M25.259,23.022c0.129-0.015,0.062,0.255,0.008,0.312c-0.053,0.056-0.42,0.073-0.465-0.05
		C24.757,23.159,25.128,23.036,25.259,23.022z M24.732,22.074c-0.054,0.055-0.42,0.074-0.465-0.05
		c-0.046-0.124,0.325-0.248,0.456-0.261C24.853,21.749,24.787,22.018,24.732,22.074z M24.221,25.325
		c-0.053,0.056-0.419,0.074-0.465-0.05c-0.045-0.125,0.325-0.248,0.457-0.262C24.344,25,24.275,25.27,24.221,25.325z M24.365,20.874
		c0.172-0.018,0.082,0.339,0.012,0.414c-0.07,0.074-0.559,0.098-0.617-0.065C23.699,21.057,24.191,20.893,24.365,20.874z
		 M23.754,22.252c0.76,0,0.53,1.363,0.071,1.521c-0.459,0.157-4.203-0.417-4.26-0.805C19.509,22.582,22.994,22.252,23.754,22.252z
		 M23.08,25.651c-0.502,0.187-2.31-0.92-2.539-1.12c-0.229-0.2,0.115-0.559,0.561-0.659c0.445-0.1,2.653,0.406,2.653,0.406
		S23.582,25.465,23.08,25.651z M23.599,26.238c-0.053,0.055-0.42,0.073-0.465-0.05c-0.045-0.125,0.326-0.248,0.457-0.263
		C23.721,25.912,23.654,26.182,23.599,26.238z M21.502,27.272c-0.531-0.345-3.554-2.275-3.456-2.294
		c0.097-0.02,1.479-0.389,1.837-0.373c0.356,0.014,2.423,0.903,2.91,1.578C23.281,26.857,22.035,27.616,21.502,27.272z
		 M21.833,28.472c-0.053,0.055-0.42,0.073-0.465-0.051s0.326-0.248,0.457-0.261C21.955,28.146,21.887,28.415,21.833,28.472z
		 M21.299,29.202c-0.054,0.056-0.42,0.074-0.466-0.05c-0.045-0.125,0.326-0.248,0.457-0.262
		C21.42,28.876,21.352,29.146,21.299,29.202z M18.214,19.065c-0.113,0.18-1.282,0.917-1.35,0.546
		c-0.067-0.371,0.936-0.878,1.191-0.941C18.312,18.607,18.328,18.885,18.214,19.065z M18.189,19.794
		c-0.086,0.195-1.133,1.097-1.255,0.74c-0.122-0.357,0.796-1.006,1.04-1.106S18.275,19.601,18.189,19.794z M18.734,19.9
		c0.932-0.344,2.323,0.219,1.836,0.633c-0.488,0.414-3.744,1.217-3.744,1.217S17.802,20.245,18.734,19.9z M18.467,18.25
		c-0.026-0.1,0.218-0.209,0.302-0.224c0.085-0.014,0.034,0.206-0.002,0.252C18.732,18.325,18.492,18.35,18.467,18.25z
		 M12.725,24.045c-0.129-0.314,0.096-0.443,0.096-0.443s2.873-1.349,3.618-1.349c0.746,0,4.36,1.205,3.585,1.922
		C19.25,24.893,12.854,24.36,12.725,24.045z M23.3,19.899c0.172-0.019,0.082,0.339,0.011,0.414
		c-0.069,0.074-0.558,0.098-0.616-0.066C22.633,20.081,23.126,19.917,23.3,19.899z M22.203,19.337
		c0.14-0.015,0.066,0.273,0.01,0.333c-0.059,0.06-0.449,0.079-0.498-0.054C21.666,19.484,22.063,19.353,22.203,19.337z
		 M22.75,21.961c-0.325,0.315-4.104,0.784-4.891,0.44s2.739-1.641,3.715-1.727S23.076,21.646,22.75,21.961z M21.267,19.672
		c-0.093,0.05-0.779,0.019-0.881-0.111c-0.102-0.131,0.58-0.205,0.822-0.201C21.453,19.363,21.361,19.624,21.267,19.672z
		 M20.627,18.3c0.169-0.02,0.077,0.348,0.009,0.424c-0.07,0.076-0.544,0.104-0.602-0.063C19.976,18.492,20.458,18.32,20.627,18.3z
		 M19.796,19.509c-0.079,0.04-0.662,0.014-0.748-0.096c-0.087-0.107,0.492-0.168,0.697-0.165
		C19.953,19.251,19.875,19.469,19.796,19.509z M19.693,18.19c-0.037,0.046-0.274,0.069-0.301-0.029
		c-0.025-0.099,0.219-0.209,0.303-0.224S19.728,18.144,19.693,18.19z M20.525,13.663c0.104-0.19,0.279-0.43,0.352-0.28
		c0.072,0.149,0.059,0.343-0.08,0.448S20.419,13.853,20.525,13.663z M20.525,15.1c0.104-0.19,0.279-0.43,0.352-0.281
		s0.059,0.343-0.08,0.448C20.658,15.373,20.419,15.29,20.525,15.1z M19.998,12.777c0.104-0.19,0.279-0.43,0.352-0.281
		s0.059,0.343-0.081,0.448C20.13,13.05,19.892,12.967,19.998,12.777z M19.955,14.109c0.105-0.19,0.281-0.43,0.352-0.28
		c0.072,0.149,0.059,0.343-0.081,0.448C20.087,14.382,19.849,14.299,19.955,14.109z M19.886,11.593
		c0.072,0.149,0.059,0.343-0.081,0.448s-0.376,0.022-0.271-0.168C19.639,11.685,19.814,11.444,19.886,11.593z M13.43,10.875
		c0.204-0.369,0.544-0.835,0.684-0.545c0.14,0.291,0.112,0.667-0.157,0.871C13.688,11.407,13.226,11.246,13.43,10.875z
		 M13.478,12.361c-0.269,0.204-0.731,0.043-0.527-0.326c0.205-0.369,0.387-0.782,0.527-0.491
		C13.617,11.833,13.747,12.157,13.478,12.361z M13.591,6.368c-0.106-0.221-0.003-0.497,0.178-0.664
		c0.181-0.167,0.247,0.261,0.259,0.582C14.04,6.606,13.696,6.589,13.591,6.368z M14.099,6.832c0.181-0.167,0.247,0.261,0.26,0.582
		c0.011,0.321-0.333,0.305-0.438,0.083C13.816,7.274,13.918,6.999,14.099,6.832z M14.001,12.036
		c0.205-0.369,0.544-0.835,0.684-0.545c0.14,0.291,0.112,0.667-0.157,0.872C14.26,12.565,13.797,12.404,14.001,12.036z
		 M16.479,11.039c0.57-0.291,0.946,1.022,0,1.893c-0.429,0.375-1.625,1.484-1.732,1.14C14.36,12.577,15.908,11.329,16.479,11.039z
		 M16.79,8.896c0.333,0.009,0.786,0.292,0.709,0.646c-0.074,0.354-0.473,0.7-0.838,0.646s-0.548-0.376-0.624-0.67
		C15.962,9.224,16.457,8.888,16.79,8.896z M14.823,14.86c-0.086-0.373,2.258-2.188,2.663-2.201c0.717,0,1.578,0.487,0.918,1.319
		c-0.658,0.832-4.331,3.557-4.388,3.012S14.736,15.417,14.823,14.86z M17.982,8.003c0.204-0.369,0.543-0.836,0.684-0.545
		c0.14,0.291,0.111,0.667-0.157,0.871C18.24,8.535,17.777,8.373,17.982,8.003z M18.318,9.271c-0.138,0.105-0.375,0.022-0.271-0.167
		c0.104-0.19,0.28-0.43,0.353-0.28C18.471,8.972,18.457,9.166,18.318,9.271z M17.982,9.967c0.204-0.369,0.543-0.835,0.684-0.545
		c0.14,0.291,0.111,0.667-0.157,0.872C18.24,10.498,17.777,10.336,17.982,9.967z M18.557,10.856c0.14,0.291,0.112,0.667-0.157,0.872
		c-0.269,0.204-0.73,0.043-0.527-0.326C18.078,11.033,18.417,10.566,18.557,10.856z M18.632,12.22
		c0.186-0.333,0.492-0.754,0.617-0.492c0.127,0.262,0.102,0.602-0.141,0.787C18.865,12.7,18.447,12.553,18.632,12.22z M18.931,7.013
		c0.105-0.19,0.28-0.43,0.352-0.28c0.072,0.15,0.059,0.343-0.08,0.448C19.063,7.286,18.826,7.203,18.931,7.013z M19.412,8.282
		c0.072,0.149,0.059,0.343-0.08,0.448s-0.377,0.022-0.271-0.168S19.341,8.131,19.412,8.282z M19.141,10.784
		c0.104-0.19,0.28-0.429,0.353-0.28s0.058,0.343-0.082,0.448C19.273,11.057,19.037,10.974,19.141,10.784z M19.352,13.185
		c0.104-0.19,0.28-0.43,0.353-0.281s0.058,0.343-0.082,0.448C19.486,13.458,19.248,13.375,19.352,13.185z M19.623,9.362
		c0.072,0.149,0.058,0.343-0.082,0.448c-0.137,0.105-0.375,0.022-0.271-0.168C19.376,9.454,19.551,9.213,19.623,9.362z
		 M19.492,7.399c0.072,0.149,0.059,0.343-0.08,0.448S19.035,7.87,19.14,7.681C19.246,7.49,19.42,7.25,19.492,7.399z M19.283,5.968
		c0.072,0.149,0.059,0.343-0.08,0.448c-0.14,0.105-0.377,0.022-0.271-0.168C19.037,6.06,19.211,5.819,19.283,5.968z M18.792,5.209
		c0.185,0.136,0.291,0.383,0.189,0.601c-0.102,0.218-0.445,0.27-0.439-0.031C18.549,5.479,18.609,5.073,18.792,5.209z M18.557,6.189
		c0.14,0.29,0.112,0.667-0.157,0.871c-0.269,0.204-0.73,0.043-0.527-0.326C18.078,6.366,18.417,5.898,18.557,6.189z M18.037,4.666
		c0.154-0.049,0.067,0.221-0.019,0.413c-0.087,0.192-0.282,0.089-0.278-0.07C17.742,4.849,17.882,4.714,18.037,4.666z M17.078,5.907
		c0.092-0.229,0.365-0.338,0.609-0.318c0.246,0.02-0.025,0.358-0.253,0.584C17.205,6.397,16.986,6.132,17.078,5.907z M15.892,5.84
		c0.092-0.228,0.365-0.338,0.61-0.318c0.246,0.021-0.025,0.358-0.254,0.584C16.02,6.333,15.799,6.066,15.892,5.84z M15.516,8.617
		c0.153-0.239,1.336-1.313,1.671-1.125c0.334,0.187-0.377,0.805-0.76,1.193C16.045,9.07,15.362,8.855,15.516,8.617z M15.499,9.649
		c-0.076,0.354-0.474,0.7-0.839,0.646c-0.365-0.054-0.548-0.376-0.624-0.67c-0.076-0.294,0.419-0.631,0.753-0.622
		C15.123,9.013,15.574,9.295,15.499,9.649z M14.29,5.692c-0.106-0.221-0.003-0.497,0.178-0.664c0.18-0.167,0.247,0.261,0.259,0.582
		C14.739,5.932,14.395,5.916,14.29,5.692z M14.599,4.545c0.012,0.321-0.333,0.305-0.437,0.082c-0.106-0.221-0.004-0.497,0.178-0.664
		C14.52,3.796,14.587,4.225,14.599,4.545z M14.226,3.749c0.012,0.191-0.202,0.176-0.27,0.043c-0.068-0.133-0.008-0.296,0.101-0.393
		C14.167,3.301,14.214,3.558,14.226,3.749z M13.769,2.709c0.109-0.097,0.156,0.158,0.168,0.349c0.012,0.191-0.202,0.176-0.27,0.043
		C13.6,2.968,13.659,2.807,13.769,2.709z M13.788,5.177C13.8,5.499,13.455,5.482,13.35,5.26c-0.105-0.221-0.003-0.498,0.179-0.665
		C13.709,4.428,13.776,4.856,13.788,5.177z M13.552,2.544c0.012,0.19-0.202,0.176-0.27,0.043c-0.068-0.132-0.008-0.295,0.102-0.392
		C13.493,2.099,13.54,2.354,13.552,2.544z M13.184,1.562c0.109-0.097,0.157,0.159,0.168,0.35c0.012,0.19-0.202,0.176-0.27,0.043
		C13.015,1.821,13.074,1.66,13.184,1.562z M13.184,2.982c0.181-0.167,0.247,0.261,0.259,0.582c0.012,0.321-0.333,0.305-0.438,0.083
		C12.901,3.425,13.003,3.149,13.184,2.982z M12.499,0.959c0.109-0.097,0.156,0.158,0.168,0.349c0.012,0.191-0.202,0.176-0.27,0.043
		C12.329,1.219,12.388,1.057,12.499,0.959z M12.12,2.577c0.053-0.24,0.303-0.395,0.549-0.416c0.245-0.021,0.035,0.357-0.152,0.619
		C12.328,3.04,12.066,2.815,12.12,2.577z M12.684,6.192c0.265,0.011,0.622,0.358,0.562,0.791c-0.06,0.434-0.375,0.856-0.665,0.791
		c-0.29-0.066-0.435-0.46-0.494-0.82C12.028,6.594,12.42,6.182,12.684,6.192z M12.132,10.388c0.329-0.726,0.835-2.008,1.093-1.725
		c0.258,0.282-0.629,2.445-0.85,2.792C12.156,11.801,11.803,11.112,12.132,10.388z M12.657,13.133
		c-0.269,0.205-0.731,0.043-0.527-0.326c0.205-0.369,0.387-0.782,0.527-0.492C12.797,12.606,12.926,12.93,12.657,13.133z
		 M13.786,13.605c2.323-0.028-2.008,6.425-2.61,5.88C11.22,18.919,11.463,13.634,13.786,13.605z M11.477,2.274
		c0.19-0.156,0.23,0.275,0.223,0.597c-0.008,0.321-0.35,0.284-0.441,0.055C11.167,2.7,11.286,2.431,11.477,2.274z M11.256,6.433
		c0.264,0.011,0.622,0.358,0.562,0.791c-0.059,0.434-0.374,0.857-0.664,0.791s-0.435-0.46-0.494-0.821
		C10.6,6.833,10.992,6.421,11.256,6.433z M11.532,10.526c-0.046,0.386-0.517,0.564-0.534,0.362
		c-0.018-0.202,0.181-1.328,0.447-1.369S11.579,10.14,11.532,10.526z M10.436,9.44c0.258-0.091,0.212,0.732,0.215,1.209
		c0.002,0.477-0.441,0.767-0.484,0.523C10.124,10.931,10.178,9.532,10.436,9.44z M10.036,11.399c0.002,0.337-0.441,0.542-0.484,0.37
		s0.011-1.162,0.269-1.226C10.079,10.479,10.033,11.062,10.036,11.399z M9.965,8.893C9.84,8.86,9.777,8.667,9.751,8.488
		c-0.025-0.178,0.144-0.38,0.258-0.375c0.114,0.005,0.268,0.176,0.242,0.39C10.226,8.716,10.09,8.924,9.965,8.893z M10.445,19.427
		c-0.301,0.021-0.291-5.936-0.291-6.205s1.399-1.732,1.533-1.033c0.134,0.699-0.857,3.706-0.9,4.312
		C10.744,17.109,10.746,19.406,10.445,19.427z M10.947,22.038c-0.373,0.115,0.029-0.659,0-1.835c0.861-0.229,1.328-1.542,1.606-1.09
		C12.831,19.563,11.32,21.923,10.947,22.038z M11.348,21.98c1.405-1.692,1.95-3.671,2.409-4.23s4.087-2.438,5.033-3.212
		c0.947-0.774,1.464,0.789,0.955,1.348C19.24,16.444,12.295,22.555,11.348,21.98z M12.108,22.697
		c-0.071-0.402,2.983-1.449,4.218-2.252c1.074,1.334-2.984,2.754-2.984,2.754S12.18,23.1,12.108,22.697z M12.685,24.289
		c0.011-0.086,3.124,0.373,4.557,0.789c1.435,0.416,3.558,1.894,3.873,2.539s-0.528,1.276-0.981,1.535
		C19.68,29.409,12.768,24.719,12.685,24.289z M13.156,25.198c0.074-0.124,2.008,1.426,3.779,2.576
		c1.301,0.844,2.512,1.312,2.832,1.549c0.669,0.589-1.734,0.086-2.596-0.646C16.31,27.946,13.026,25.413,13.156,25.198z
		 M19.957,30.766c-0.053,0.056-0.418,0.073-0.465-0.051c-0.045-0.125,0.326-0.249,0.457-0.262S20.012,30.708,19.957,30.766z
		 M19.943,29.74c-0.046-0.124,0.325-0.248,0.455-0.261c0.131-0.015,0.063,0.255,0.01,0.312
		C20.354,29.847,19.988,29.864,19.943,29.74z M20.675,31.247c-0.055,0.056-0.42,0.074-0.465-0.05
		c-0.045-0.125,0.326-0.248,0.455-0.262C20.796,30.921,20.728,31.19,20.675,31.247z M20.718,29.74
		c-0.046-0.124,0.326-0.248,0.456-0.261c0.13-0.015,0.063,0.255,0.009,0.312C21.13,29.847,20.762,29.864,20.718,29.74z
		 M21.299,31.07c-0.054,0.055-0.42,0.073-0.466-0.05c-0.045-0.125,0.326-0.248,0.457-0.262C21.42,30.744,21.352,31.014,21.299,31.07
		z M21.451,30.41c-0.055,0.056-0.42,0.074-0.465-0.05c-0.047-0.125,0.325-0.249,0.455-0.262
		C21.572,30.085,21.504,30.354,21.451,30.41z M21.894,29.895c-0.053,0.055-0.42,0.072-0.465-0.051
		c-0.045-0.125,0.326-0.247,0.457-0.261C22.015,29.568,21.949,29.837,21.894,29.895z M22.482,29.296
		c-0.053,0.057-0.42,0.074-0.465-0.05c-0.045-0.125,0.326-0.248,0.457-0.262C22.603,28.972,22.537,29.24,22.482,29.296z
		 M22.623,28.116c-0.055,0.055-0.42,0.074-0.465-0.05c-0.047-0.124,0.326-0.248,0.455-0.261
		C22.744,27.791,22.676,28.061,22.623,28.116z M23.156,28.648c-0.053,0.056-0.42,0.074-0.465-0.05
		c-0.045-0.125,0.326-0.248,0.457-0.263C23.279,28.323,23.21,28.592,23.156,28.648z M23.332,27.242
		c-0.053,0.055-0.42,0.073-0.465-0.05c-0.045-0.125,0.326-0.248,0.457-0.261C23.455,26.916,23.386,27.186,23.332,27.242z
		 M23.955,27.598c-0.053,0.055-0.42,0.072-0.465-0.051c-0.045-0.125,0.326-0.248,0.457-0.261
		C24.076,27.271,24.009,27.54,23.955,27.598z M24.31,26.683c-0.054,0.056-0.42,0.073-0.465-0.051
		c-0.046-0.125,0.325-0.248,0.456-0.262C24.431,26.357,24.365,26.626,24.31,26.683z M24.896,25.808
		c-0.054,0.056-0.42,0.073-0.465-0.051c-0.046-0.125,0.325-0.248,0.456-0.262C25.017,25.482,24.951,25.751,24.896,25.808z
		 M25.324,24.414c-0.053,0.055-0.42,0.073-0.465-0.05c-0.045-0.125,0.326-0.248,0.457-0.261
		C25.445,24.088,25.378,24.357,25.324,24.414z"/>
</g>
<g>
</g>
<g>
</g>
<g>
</g>
<g>
</g>
<g>
</g>
<g>
</g>
<g>
</g>
<g>
</g>
<g>
</g>
<g>
</g>
<g>
</g>
<g>
</g>
<g>
</g>
<g>
</g>
<g>
</g>
</svg>
