<?xml version="1.0" encoding="iso-8859-1"?>
<!-- Generator: Adobe Illustrator 16.0.0, SVG Export Plug-In . SVG Version: 6.00 Build 0)  -->
<!DOCTYPE svg PUBLIC "-//W3C//DTD SVG 1.1//EN" "http://www.w3.org/Graphics/SVG/1.1/DTD/svg11.dtd">
<svg version="1.1" id="Capa_1" xmlns="http://www.w3.org/2000/svg" xmlns:xlink="http://www.w3.org/1999/xlink" x="0px" y="0px"
	 width="564.475px" height="564.475px" viewBox="0 0 564.475 564.475" style="enable-background:new 0 0 564.475 564.475;"
	 xml:space="preserve">
<g>
	<g>
		<path d="M563.529,37.717c-1.852-3.158-9.714-4.492-14.528-3.9c-15.818,1.942-31.71,4.231-47.173,8.021
			c-66.68,16.34-121.05,51.24-158.949,109.283c-12.938,19.816-23.456,41.2-35.562,61.583c-4.496,7.568-10.371,14.325-15.618,21.448
			c-0.95-0.236-1.901-0.473-2.852-0.71c-0.281-2.223-0.604-4.443-0.836-6.67c-0.4-3.815,0.673-9.021-1.416-11.151
			c-0.727-0.743-1.298-1.465-1.742-2.179c-0.004-0.061-0.013-0.122-0.021-0.184c5.116-42.391,21.954-82.832,48.609-116.309
			c0.457-0.575,0.669-1.195,0.697-1.803c0.478-0.783,0.946-1.571,1.392-2.362c1.167-2.069,1.191-4.782,1.881-7.907
			c-8.56,0.751-12.053,5.969-14.994,11.461c-5.704,10.636-11.24,21.363-16.761,32.093c-1.718,3.194-3.374,6.418-4.945,9.682
			c-2.496,5.072-4.757,10.216-6.772,15.443c-0.057,0.143-0.106,0.286-0.163,0.424c-0.331,0.857-0.653,1.718-0.967,2.583
			c-4.492,11.791-8.05,23.933-10.629,36.34c-6.258-36.443-20.661-71.184-42.419-101.376c-0.265-0.371-0.58-0.648-0.914-0.856
			c-1.204-1.314-2.55-2.521-3.896-3.611c-1.473-1.191-4.015-1.061-6.075-1.522c0.053,2.064-0.669,4.639,0.298,6.104
			c3.55,5.382,7.315,10.706,11.62,15.492c2.815,3.129,5.483,6.341,8.009,9.629c16.773,29.653,27.026,62.604,30,96.667
			c-0.347,2.913-0.637,5.838-0.877,8.776c-0.318,1.326-0.632,2.656-0.906,3.994c-0.501,2.452-0.681,4.969-1.008,7.454
			c-0.897,0.094-1.795,0.188-2.692,0.282c-4.154-5.227-8.882-10.106-12.346-15.757c-4.419-7.205-8.715-14.492-12.881-21.856
			c-0.118-0.216-0.236-0.433-0.363-0.645c-2.713-4.811-5.377-9.645-7.936-14.533c-17.104-32.665-38.564-61.836-67.125-85.439
			c-40.992-33.88-88.654-52.265-140.756-60.054C23.582,34.408,15.034,33.592,6.654,34c-6.765,0.331-8.625,5.145-4.406,10.453
			c3.358,4.227,7.895,7.527,11.983,11.154c4.655,4.129,9.866,7.748,13.982,12.346c5.695,6.361,5.385,11.624-0.775,17.675
			c-5.304,5.206-5.459,10.669-1.428,16.059c4.011,5.365,8.842,10.13,13.452,15.03c4.276,4.541,8.898,8.756,13.052,13.399
			c2.88,3.219,3.594,6.671,0.6,10.775c-7.356,10.073-6.711,13.606,3.289,21.493c5.288,4.17,11.061,7.777,16.067,12.252
			c7.789,6.969,8.356,11.962,3.468,21.094c-5.112,9.547-3.456,18.294,6.593,22.521c8.935,3.758,19.025,5.806,28.748,6.442
			c24.651,1.615,49.417,1.546,74.077,3.092c13.864,0.869,27.609,3.599,41.408,5.492c-13.174,2.109-26.173,2.771-38.939,4.847
			c-18.829,3.064-36.075,9.967-49.192,24.705c-7.805,8.764-9.425,21.302,3.929,27.087c5.072,2.199,5.606,5.631,1.693,9.988
			c-9.066,10.109-9.037,14.292,0.689,23.798c7.552,7.381,9.319,15.863,5.585,25.296c-2.183,5.509-5.182,10.829-8.596,15.68
			c-17.247,24.509-35.304,48.463-51.918,73.387c-7.654,11.485-13.623,24.362-18.604,37.283c-5.614,14.562-5.61,29.87,0.351,44.677
			c2.077,5.161,5.019,11.464,11.241,10.098c4.529-0.991,9.176-5.504,11.93-9.661c5.439-8.214,3.337-17.279,0.139-25.933
			c-6.663-18.018-4.716-35.692,3.925-52.208c17.295-33.04,43.933-56.459,77.785-71.682c9.408-4.23,11.363-3.312,18.425,5.101
			c10.269,12.235,20.665,13.231,33.081,3.194c8.294-6.708,13.872-15.357,15.639-25.721c2.219-13.015,2.477-26.385,5.031-39.314
			c2.223-11.261,4.978-22.465,8.221-33.497c1.876-2.974,2.876-6.414,3.072-9.943c0.126-0.396,0.249-0.795,0.379-1.191
			c1.93-5.912,7.16-10.747,10.889-16.067c0.877,0.257,1.754,0.518,2.632,0.779c1.028,6.373,4.361,13.448,2.672,18.992
			c-6.671,21.905-4.664,43.375,0.506,64.921c0.559,2.321,3.75,4.011,5.717,5.994c1.705-1.971,4.354-3.685,4.974-5.949
			c5.43-19.8,7.16-40.229,1.562-59.857c-2.701-9.47,0.579-16.006,2.57-24.676c10.008,8.225,15.279,18.556,17.613,29.71
			c3.668,17.528,6.279,35.333,8.271,53.139c1.856,16.585,5.059,32.138,19.049,43.154c12.114,9.539,22.726,8.335,32.51-3.644
			c6.658-8.152,9.747-8.964,19.229-4.762c32.582,14.443,57.715,37.287,75.39,68.104c9.735,16.969,12.321,35.133,5.981,54.113
			c-1.261,3.773-2.276,7.653-3.056,11.559c-1.759,8.825,1.351,16.299,7.368,22.497c5.047,5.189,11.041,4.577,15.26-1.428
			c1.975-2.808,3.496-6.08,4.561-9.352c6.255-19.241,3.338-38.177-6.319-54.954c-12.791-22.22-27.785-43.179-42.077-64.517
			c-9.719-14.509-20.485-28.356-29.608-43.216c-6.834-11.134-5.047-21.938,2.57-29.706c10.935-11.146,11.081-12.828,1.342-24.582
			c-3.035-3.664-2.986-6.365,1.102-9.245c13.685-9.653,14.321-17.936,2.371-30.07c-11.065-11.232-24.848-17.781-40.025-20.6
			c-14.944-2.778-30.175-3.994-45.283-5.896c19.771-3.223,39.739-6.087,59.812-7.446c18.666-1.265,37.491-0.241,56.149-1.567
			c9.689-0.686,19.686-3.072,28.612-6.875c8.838-3.766,10.649-12.061,6.875-20.163c-6.047-12.991-4.603-18.405,7.079-26.998
			c5.022-3.696,10.277-7.16,14.855-11.359c6.556-6.014,6.96-9.988,1.199-16.708c-4.721-5.508-3.55-9.955,0.755-14.411
			c4.684-4.847,9.824-9.253,14.431-14.166c4.076-4.349,8.074-8.87,11.396-13.794c3.056-4.533,2.697-9.229-1.358-13.635
			c-7.446-8.095-7.479-13.436,0.437-21.033c5.377-5.161,11.828-9.184,17.409-14.153C560.159,47.721,566.985,43.608,563.529,37.717z"
			/>
	</g>
</g>
<g>
</g>
<g>
</g>
<g>
</g>
<g>
</g>
<g>
</g>
<g>
</g>
<g>
</g>
<g>
</g>
<g>
</g>
<g>
</g>
<g>
</g>
<g>
</g>
<g>
</g>
<g>
</g>
<g>
</g>
</svg>
